<svg xmlns="http://www.w3.org/2000/svg" viewBox="0 0 32 32" shape-rendering="crispEdges">
  <!-- Decorative QR-style icon (not scannable): clean finder + alignment
       patterns, random noise everywhere else. -->
  <rect width="32" height="32" rx="4" fill="#ffffff"/>
  <g fill="#0d1117">
    <rect x="14" y="0" width="2" height="2"/>
    <rect x="14" y="2" width="2" height="2"/>
    <rect x="14" y="4" width="2" height="2"/>
    <rect x="14" y="6" width="2" height="2"/>
    <rect x="16" y="8" width="2" height="2"/>
    <rect x="16" y="10" width="2" height="2"/>
    <rect x="14" y="12" width="2" height="2"/>
    <rect x="16" y="12" width="2" height="2"/>
    <rect x="0" y="14" width="2" height="2"/>
    <rect x="4" y="14" width="2" height="2"/>
    <rect x="6" y="14" width="2" height="2"/>
    <rect x="14" y="14" width="2" height="2"/>
    <rect x="18" y="14" width="2" height="2"/>
    <rect x="26" y="14" width="2" height="2"/>
    <rect x="30" y="14" width="2" height="2"/>
    <rect x="0" y="16" width="2" height="2"/>
    <rect x="8" y="16" width="2" height="2"/>
    <rect x="12" y="16" width="2" height="2"/>
    <rect x="14" y="16" width="2" height="2"/>
    <rect x="30" y="16" width="2" height="2"/>
    <rect x="14" y="18" width="2" height="2"/>
    <rect x="30" y="22" width="2" height="2"/>
    <rect x="14" y="24" width="2" height="2"/>
    <rect x="30" y="24" width="2" height="2"/>
    <rect x="30" y="26" width="2" height="2"/>
    <rect x="30" y="28" width="2" height="2"/>
    <rect x="14" y="30" width="2" height="2"/>
    <rect x="16" y="30" width="2" height="2"/>
    <rect x="18" y="30" width="2" height="2"/>
    <rect x="22" y="30" width="2" height="2"/>
  </g>
  <g fill="#0d1117">
    <rect x="0"  y="0"  width="12" height="12"/>
    <rect x="20" y="0"  width="12" height="12"/>
    <rect x="0"  y="20" width="12" height="12"/>
    <rect x="18" y="18" width="10" height="10"/>
  </g>
  <g fill="#ffffff">
    <rect x="2"  y="2"  width="8" height="8"/>
    <rect x="22" y="2"  width="8" height="8"/>
    <rect x="2"  y="22" width="8" height="8"/>
    <rect x="20" y="20" width="6" height="6"/>
  </g>
  <g fill="#0d1117">
    <rect x="4"  y="4"  width="4" height="4"/>
    <rect x="24" y="4"  width="4" height="4"/>
    <rect x="4"  y="24" width="4" height="4"/>
    <rect x="22" y="22" width="2" height="2"/>
  </g>
</svg>
